<svg xmlns="http://www.w3.org/2000/svg" width="41.151" height="19.949" viewBox="0 0 41.151 19.949">
  <path id="Path_17780" data-name="Path 17780" d="M36.559,26.683H2.066l5.891,5.891a1.508,1.508,0,1,1-2.133,2.133l-8.465-8.465a1.5,1.5,0,0,1-.1-.112c-.013-.016-.025-.033-.037-.049s-.035-.045-.051-.069-.026-.042-.039-.064-.026-.041-.037-.063-.022-.045-.032-.067-.021-.044-.031-.066-.017-.045-.025-.067-.018-.047-.025-.072-.012-.046-.018-.069-.013-.049-.018-.074-.009-.054-.012-.081-.007-.043-.009-.064a1.523,1.523,0,0,1,0-.3c0-.022.006-.043.009-.064s.007-.054.012-.081.012-.049.018-.074.011-.046.018-.069.017-.048.025-.072.015-.045.025-.067.02-.044.031-.066.021-.045.032-.067.025-.042.037-.063.025-.043.039-.064.034-.046.051-.069.024-.033.037-.049a1.5,1.5,0,0,1,.1-.112l8.465-8.465a1.508,1.508,0,1,1,2.133,2.133L2.066,23.666H36.559a1.508,1.508,0,0,1,0,3.017Z" transform="translate(3.084 -15.2)"/>
</svg>
