<svg xmlns="http://www.w3.org/2000/svg" width="29.078" height="29.173" viewBox="0 0 29.078 29.173">
  <g id="Group_10764" data-name="Group 10764" transform="translate(1 1)">
    <g id="Group_10763" data-name="Group 10763">
      <path id="Path_19569" data-name="Path 19569" d="M164.539,60a13.537,13.537,0,0,0-7.287,24.946,13.818,13.818,0,0,0,13.465.735,1.934,1.934,0,0,0-1.617-3.514,10.021,10.021,0,0,1-9.761-.478,9.669,9.669,0,1,1,14.871-8.15,1.934,1.934,0,0,1-3.868.029c0-.01,0-.02,0-.029a5.811,5.811,0,1,0-1.934,4.32,5.8,5.8,0,0,0,9.671-4.32A13.554,13.554,0,0,0,164.539,60Zm1.907,13.849a1.93,1.93,0,1,1,.014-.531A1.936,1.936,0,0,0,166.446,73.849Z" transform="translate(-151 -60)" fill="#fff" stroke="#0087c3" stroke-width="2"/>
    </g>
  </g>
</svg>
