<svg xmlns="http://www.w3.org/2000/svg" width="30.278" height="22.975" viewBox="0 0 30.278 22.975">
  <g id="Group_5784" data-name="Group 5784" transform="translate(-4.8 -968.162)">
    <path id="Path_9456" data-name="Path 9456" d="M7.988,968.362A3,3,0,0,0,5,971.35v16.6a3,3,0,0,0,2.988,2.988h23.9a3,3,0,0,0,2.988-2.988v-16.6a3,3,0,0,0-2.988-2.988H7.988Zm0,1.992h23.9a.973.973,0,0,1,1,1v16.6a.973.973,0,0,1-1,1H7.988a.973.973,0,0,1-1-1v-16.6A.973.973,0,0,1,7.988,970.354Zm22.294,2.967a1,1,0,0,0-.633.27l-8.974,8.092a1.086,1.086,0,0,1-1.494,0l-8.953-8.092a1,1,0,1,0-1.338,1.484l5.218,4.7L8.921,984.2a1,1,0,1,0,1.286,1.515l5.395-4.6,2.251,2.033a3.108,3.108,0,0,0,4.15,0l2.262-2.044,5.405,4.606a1,1,0,1,0,1.286-1.515l-5.187-4.429,5.208-4.7a1,1,0,0,0-.7-1.753Z" transform="translate(0 0)" fill="#0087c3" stroke="#eaf3de" stroke-width="0.4"/>
  </g>
</svg>
