<svg xmlns="http://www.w3.org/2000/svg" width="25.953" height="25.958" viewBox="0 0 25.953 25.958">
  <path id="Path_9457" data-name="Path 9457" d="M19.605,23.936l-1.056-.014-.3-.057c-.24-.046-.493-.091-.735-.151a14.552,14.552,0,0,1-4.36-2A35.924,35.924,0,0,1,7.11,16.682a36.6,36.6,0,0,1-4.6-5.462A15.179,15.179,0,0,1,.275,6.63c-.081-.3-.137-.592-.189-.877-.024-.122-.046-.24-.069-.364L0,5.238V4.386l.057-.139A6.823,6.823,0,0,1,1.9,1.856C2.415,1.377,2.956.941,3.464.536A2.482,2.482,0,0,1,5.673.057a1.96,1.96,0,0,1,1.2.85l.656.989c.685,1.044,1.392,2.122,2.11,3.165a2.53,2.53,0,0,1,.2,2.635c-.127.28-.273.539-.414.791l-.18.323c-.134.24-.266.479-.4.719l.45.539c.4.479.826.994,1.258,1.459A32.282,32.282,0,0,0,14.4,15.12c.508-.295,1.04-.592,1.622-.908a2.7,2.7,0,0,1,1.945-.338,2.058,2.058,0,0,1,.666.283q2.225,1.464,4.439,2.939a2.218,2.218,0,0,1,.757,2.556h0a2.352,2.352,0,0,1-.326.664,14.328,14.328,0,0,1-2.724,2.9,5.01,5.01,0,0,1-.719.45c-.091.05-.18.1-.268.149ZM18.769,22.4H19.2l.129-.069a3.713,3.713,0,0,0,.508-.311,12.869,12.869,0,0,0,2.427-2.611.9.9,0,0,0,.105-.24.731.731,0,0,0-.149-.8q-2.211-1.473-4.429-2.932a.534.534,0,0,0-.165-.069,1.219,1.219,0,0,0-.874.182c-.644.347-1.222.673-1.766.994a1.121,1.121,0,0,1-1.327-.077,33.233,33.233,0,0,1-4.226-3.9c-.462-.5-.9-1.018-1.315-1.524-.223-.261-.448-.52-.659-.779A1.028,1.028,0,0,1,7.361,9c.189-.311.364-.628.539-.941l.187-.333c.132-.24.254-.45.352-.668A1.009,1.009,0,0,0,8.37,5.933C7.651,4.877,6.933,3.789,6.24,2.74L5.6,1.758a.436.436,0,0,0-.29-.2.958.958,0,0,0-.886.177c-.479.39-1,.81-1.48,1.25a5.717,5.717,0,0,0-1.409,1.71v.465c.022.1.041.206.06.309.05.268.1.52.163.759A13.794,13.794,0,0,0,3.783,10.36,35.135,35.135,0,0,0,8.2,15.6a34.544,34.544,0,0,0,5.783,4.822,13.023,13.023,0,0,0,3.9,1.8c.211.053.426.091.642.129Z" transform="matrix(0.996, 0.087, -0.087, 0.996, 2.086, 0.026)" fill="#fff"/>
</svg>
