<svg xmlns="http://www.w3.org/2000/svg" width="18" height="18" viewBox="0 0 18 18">
  <g id="Group_4" data-name="Group 4" transform="translate(-1163 -66)">
    <circle id="Ellipse_1" data-name="Ellipse 1" cx="9" cy="9" r="9" transform="translate(1163 66)" fill="#fff"/>
    <g id="Group_3" data-name="Group 3" transform="translate(1168 71)">
      <path id="Path_9" data-name="Path 9" d="M12.321,13.25a15.148,15.148,0,0,1,1.072-1.223.886.886,0,0,1,1.23-.021L16,13.019a.334.334,0,0,1,.041.036.887.887,0,0,1,0,1.252l-.846.846c-.261.261-1.084.281-1.33.281A6.022,6.022,0,0,1,9.6,13.655C7.081,11.135,7.84,8.488,8.188,8.14L9,7.332a.887.887,0,0,1,1.253,0,.413.413,0,0,1,.028.033l1.049,1.344a.887.887,0,0,1-.016,1.24l-1.286,1.214A4.017,4.017,0,0,0,12.321,13.25Z" transform="translate(-7.804 -7.073)" fill="#0087c3"/>
    </g>
  </g>
</svg>
