<svg xmlns="http://www.w3.org/2000/svg" width="30.974" height="30.981" viewBox="0 0 30.974 30.981">
  <path id="Path_9457" data-name="Path 9457" d="M23.4,28.572l-1.261-.017-.363-.069c-.286-.054-.589-.109-.878-.18a17.368,17.368,0,0,1-5.2-2.387,42.875,42.875,0,0,1-7.208-6A43.677,43.677,0,0,1,2.993,13.4,18.116,18.116,0,0,1,.329,7.918C.232,7.564.166,7.212.1,6.872.074,6.726.049,6.586.02,6.437L0,6.257V5.239l.069-.166A8.144,8.144,0,0,1,2.27,2.22C2.882,1.648,3.528,1.128,4.134.645A2.962,2.962,0,0,1,6.77.073,2.339,2.339,0,0,1,8.2,1.088l.783,1.181C9.8,3.515,10.644,4.8,11.5,6.045a3.019,3.019,0,0,1,.243,3.145c-.152.335-.326.643-.495.943l-.214.386c-.16.286-.317.572-.483.858l.537.643c.483.572.986,1.187,1.5,1.741a38.528,38.528,0,0,0,4.594,4.289c.606-.352,1.241-.706,1.936-1.084a3.222,3.222,0,0,1,2.322-.4,2.456,2.456,0,0,1,.795.337q2.656,1.747,5.3,3.508a2.648,2.648,0,0,1,.9,3.051h0a2.807,2.807,0,0,1-.389.792A17.1,17.1,0,0,1,24.8,27.714a5.979,5.979,0,0,1-.858.537c-.109.06-.214.117-.32.177Zm-1-1.833h.509l.154-.083a4.432,4.432,0,0,0,.606-.372,15.359,15.359,0,0,0,2.9-3.116,1.075,1.075,0,0,0,.126-.286.872.872,0,0,0-.177-.952q-2.639-1.758-5.286-3.5a.638.638,0,0,0-.2-.083,1.455,1.455,0,0,0-1.044.217c-.769.415-1.458.8-2.107,1.187A1.338,1.338,0,0,1,16.3,19.66,39.663,39.663,0,0,1,11.253,15c-.552-.592-1.069-1.215-1.57-1.818-.266-.312-.535-.62-.786-.929a1.227,1.227,0,0,1-.112-1.507c.226-.372.435-.749.643-1.124l.223-.4c.157-.286.3-.537.42-.8a1.2,1.2,0,0,0-.083-1.341C9.132,5.825,8.274,4.527,7.448,3.275L6.684,2.1a.52.52,0,0,0-.346-.24,1.144,1.144,0,0,0-1.058.212c-.572.466-1.2.966-1.767,1.492A6.823,6.823,0,0,0,1.833,5.608v.555c.026.123.049.246.071.369.06.32.117.62.194.906A16.463,16.463,0,0,0,4.514,12.37a41.933,41.933,0,0,0,5.269,6.25,41.227,41.227,0,0,0,6.9,5.755,15.543,15.543,0,0,0,4.655,2.153c.252.063.509.109.766.154Z" transform="matrix(0.996, 0.087, -0.087, 0.996, 2.49, 0.026)" fill="#0087c3"/>
</svg>
