<svg id="instagram-logo_3_" data-name="instagram-logo (3)" xmlns="http://www.w3.org/2000/svg" width="14.68" height="14.68" viewBox="0 0 14.68 14.68">
  <path id="Path_5725" data-name="Path 5725" d="M10.629,0H4.051A4.056,4.056,0,0,0,0,4.051v6.578A4.056,4.056,0,0,0,4.051,14.68h6.578a4.056,4.056,0,0,0,4.051-4.051V4.051A4.056,4.056,0,0,0,10.629,0Zm2.749,10.629a2.752,2.752,0,0,1-2.749,2.749H4.051A2.752,2.752,0,0,1,1.3,10.629V4.051A2.752,2.752,0,0,1,4.051,1.3h6.578a2.752,2.752,0,0,1,2.749,2.749v6.578Z" transform="translate(0)" fill="#fff"/>
  <path id="Path_5726" data-name="Path 5726" d="M44.751,40.97a3.783,3.783,0,1,0,3.783,3.783A3.787,3.787,0,0,0,44.751,40.97Zm0,6.263a2.48,2.48,0,1,1,2.48-2.48A2.483,2.483,0,0,1,44.751,47.233Z" transform="translate(-37.411 -37.413)" fill="#fff"/>
  <path id="Path_5727" data-name="Path 5727" d="M119.876,28.251a.955.955,0,1,0,.676.28A.959.959,0,0,0,119.876,28.251Z" transform="translate(-108.595 -25.798)" fill="#fff"/>
</svg>
