<svg xmlns="http://www.w3.org/2000/svg" width="7.602" height="15.049" viewBox="0 0 7.602 15.049">
  <path id="facebook_2_" data-name="facebook (2)" d="M126.925,8.015h1.65v6.791a.243.243,0,0,0,.243.243h2.8a.243.243,0,0,0,.243-.243V8.047h1.9a.243.243,0,0,0,.241-.215l.288-2.5a.243.243,0,0,0-.241-.271h-2.184V3.494c0-.472.254-.712.756-.712h1.428a.243.243,0,0,0,.243-.243V.245A.243.243,0,0,0,134.041,0h-1.968l-.09,0a3.772,3.772,0,0,0-2.466.93,2.586,2.586,0,0,0-.86,2.3V5.062h-1.732a.243.243,0,0,0-.243.243V7.773A.243.243,0,0,0,126.925,8.015Z" transform="translate(-126.682)" fill="#fff"/>
</svg>
