<svg id="twitter_4_" data-name="twitter (4)" xmlns="http://www.w3.org/2000/svg" width="15.992" height="12.993" viewBox="0 0 15.992 12.993">
  <g id="Group_4575" data-name="Group 4575" transform="translate(0 0)">
    <path id="Path_5728" data-name="Path 5728" d="M15.992,49.538a6.836,6.836,0,0,1-1.889.518,3.26,3.26,0,0,0,1.442-1.812,6.552,6.552,0,0,1-2.079.794A3.278,3.278,0,0,0,7.8,51.279a3.376,3.376,0,0,0,.076.748A9.28,9.28,0,0,1,1.113,48.6a3.279,3.279,0,0,0,1.007,4.382,3.238,3.238,0,0,1-1.481-.4v.036a3.294,3.294,0,0,0,2.627,3.221,3.272,3.272,0,0,1-.86.108,2.9,2.9,0,0,1-.621-.056A3.31,3.31,0,0,0,4.85,58.169a6.588,6.588,0,0,1-4.065,1.4A6.14,6.14,0,0,1,0,59.522a9.23,9.23,0,0,0,5.029,1.471,9.267,9.267,0,0,0,9.331-9.329c0-.145,0-.285-.012-.424A6.541,6.541,0,0,0,15.992,49.538Z" transform="translate(0 -48)" fill="#fff"/>
  </g>
</svg>
